<?xml version="1.0" standalone="no"?>
<!DOCTYPE svg PUBLIC "-//W3C//DTD SVG 20010904//EN"
 "http://www.w3.org/TR/2001/REC-SVG-20010904/DTD/svg10.dtd">
<svg version="1.0" xmlns="http://www.w3.org/2000/svg"
 width="512.000000pt" height="512.000000pt" viewBox="0 0 512.000000 512.000000"
 preserveAspectRatio="xMidYMid meet">
<metadata>
Created by potrace 1.14, written by Peter Selinger 2001-2017
</metadata>
<g transform="translate(0.000000,512.000000) scale(0.100000,-0.100000)"
fill="#000000" stroke="none">
<path d="M4115 3024 c-16 -9 -39 -28 -50 -42 -19 -26 -20 -44 -22 -499 -3
-516 -3 -514 58 -640 75 -156 217 -271 392 -316 84 -22 244 -16 326 12 125 43
240 141 242 205 2 49 -2 69 -18 97 -20 33 -45 49 -91 54 -38 5 -50 0 -148 -66
-137 -91 -332 -50 -435 90 -48 65 -59 126 -59 323 l0 178 233 0 c261 0 284 5
319 71 24 44 23 83 -4 130 -36 65 -56 69 -316 69 l-230 0 -4 133 c-3 113 -6
136 -23 159 -40 54 -111 71 -170 42z"/>
<path d="M649 2690 c-114 -20 -247 -96 -330 -189 -66 -73 -127 -197 -142 -287
-8 -48 -12 -221 -12 -536 1 -457 1 -464 22 -498 40 -64 107 -85 172 -55 69 31
75 54 76 275 1 114 5 195 11 195 5 0 28 -10 50 -22 82 -43 178 -63 288 -59
162 7 281 60 396 175 73 74 140 196 160 291 14 70 11 209 -6 275 -53 202 -232
379 -434 429 -62 15 -182 18 -251 6z m250 -295 c224 -113 244 -421 37 -559
-260 -172 -587 92 -476 386 34 92 126 173 225 199 58 16 156 4 214 -26z"/>
<path d="M3083 2671 c-148 -51 -261 -149 -327 -285 -53 -110 -59 -158 -60
-476 -1 -285 0 -286 23 -319 57 -80 178 -79 226 2 18 29 20 55 21 312 2 314 7
345 71 423 54 66 121 96 218 96 70 1 86 -3 133 -29 64 -35 97 -71 130 -145 25
-54 26 -57 27 -342 1 -272 2 -289 21 -315 44 -60 123 -79 181 -43 67 41 68 43
68 358 0 319 -5 364 -60 477 -60 125 -171 229 -297 277 -77 29 -83 30 -195 33
-89 3 -111 0 -180 -24z"/>
<path d="M2254 2671 c-31 -14 -46 -30 -61 -62 -19 -42 -20 -64 -19 -509 2
-422 4 -468 19 -498 49 -91 176 -94 234 -5 17 25 18 61 18 508 0 520 0 516
-55 557 -38 28 -88 32 -136 9z"/>
<path d="M1650 1769 c-89 -52 -102 -165 -28 -238 98 -96 264 -6 244 132 -15
102 -128 157 -216 106z"/>
</g>
</svg>
